# xmcd CD database file
#
# Track frame offsets:
#	150
#	27227
#	65956
#	98508
#	133949
#	163638
#	201295
#
# Disc length: 3052 seconds
#
# Revision: 0
# Processed by: cddbd v1.5.2PL0 Copyright (c) Steve Scherf et al.
# Submitted via: CDex 1.70beta2
#
DISCID=620bea07
DTITLE=Jason Adasiewicz - Varmint (Rolldown)
DYEAR=2009
DGENRE=Jazz
TTITLE0=Green Grass
TTITLE1=Varmint
TTITLE2=Dagger
TTITLE3=Hide
TTITLE4=I Hope She Is Awake
TTITLE5=Punchbug
TTITLE6=The Griots
EXTD=YEAR: 2009
EXTT0=
EXTT1=
EXTT2=
EXTT3=
EXTT4=
EXTT5=
EXTT6=
PLAYORDER=
